HIERARCHY
ROOT Hips
{
 OFFSET 0.000000 0.000000 0.000000
 CHANNELS 6 Xposition Yposition Zposition Yrotation Xrotation Zrotation
 JOINT Chest
 {
  OFFSET 0.000000 9.588913 -0.003946
  CHANNELS 3 Yrotation Xrotation Zrotation
  JOINT Chest2
  {
   OFFSET 0.000000 9.541882 0.008053
   CHANNELS 3 Yrotation Xrotation Zrotation
   JOINT Chest3
   {
    OFFSET 0.000000 9.501360 0.000000
    CHANNELS 3 Yrotation Xrotation Zrotation
    JOINT Chest4
    {
     OFFSET 0.000000 9.491660 0.000000
     CHANNELS 3 Yrotation Xrotation Zrotation
     JOINT Neck
     {
      OFFSET 0.000000 14.331917 0.000000
      CHANNELS 3 Yrotation Xrotation Zrotation
      JOINT Head
      {
       OFFSET 0.000000 8.884799 0.017034
       CHANNELS 3 Yrotation Xrotation Zrotation
       End Site
       {
        OFFSET 0.000000 16.896195 0.008993
       }
      }
     }
     JOINT RightCollar
     {
      OFFSET -2.923010 9.499495 0.000000
      CHANNELS 3 Yrotation Xrotation Zrotation
      JOINT RightShoulder
      {
       OFFSET -13.795216 0.000000 0.000000
       CHANNELS 3 Yrotation Xrotation Zrotation
       JOINT RightElbow
       {
        OFFSET -30.272209 0.000000 0.000000
        CHANNELS 3 Yrotation Xrotation Zrotation
        JOINT RightWrist
        {
         OFFSET -24.478199 0.000000 0.000000
         CHANNELS 3 Yrotation Xrotation Zrotation
         End Site
         {
          OFFSET -18.090752 0.000000 0.000000
         }
        }
       }
      }
     }
     JOINT LeftCollar
     {
      OFFSET 2.923010 9.499495 0.000000
      CHANNELS 3 Yrotation Xrotation Zrotation
      JOINT LeftShoulder
      {
       OFFSET 13.795216 0.000000 0.000000
       CHANNELS 3 Yrotation Xrotation Zrotation
       JOINT LeftElbow
       {
        OFFSET 30.272209 0.000000 0.000000
        CHANNELS 3 Yrotation Xrotation Zrotation
        JOINT LeftWrist
        {
         OFFSET 24.478199 0.000000 0.000000
         CHANNELS 3 Yrotation Xrotation Zrotation
         End Site
         {
          OFFSET 18.090752 0.000000 0.000000
         }
        }
       }
      }
     }
    }
   }
  }
 }
 JOINT RightHip
 {
  OFFSET -7.826875 0.019532 0.001973
  CHANNELS 3 Yrotation Xrotation Zrotation
  JOINT RightKnee
  {
   OFFSET 0.000000 -40.546152 -0.001885
   CHANNELS 3 Yrotation Xrotation Zrotation
   JOINT RightAnkle
   {
    OFFSET 0.000000 -39.417092 -0.003189
    CHANNELS 3 Yrotation Xrotation Zrotation
    JOINT RightToe
    {
     OFFSET 0.000000 -7.579396 17.243563
     CHANNELS 3 Yrotation Xrotation Zrotation
     End Site
     {
      OFFSET 0.000000 -1.500329 6.694466
     }
    }
   }
  }
 }
 JOINT LeftHip
 {
  OFFSET 7.826875 0.019532 0.001973
  CHANNELS 3 Yrotation Xrotation Zrotation
  JOINT LeftKnee
  {
   OFFSET 0.000000 -40.546152 -0.001885
   CHANNELS 3 Yrotation Xrotation Zrotation
   JOINT LeftAnkle
   {
    OFFSET 0.000000 -39.417092 -0.003189
    CHANNELS 3 Yrotation Xrotation Zrotation
    JOINT LeftToe
    {
     OFFSET 0.000000 -7.579396 17.243563
     CHANNELS 3 Yrotation Xrotation Zrotation
     End Site
     {
      OFFSET 0.000000 -1.500329 6.694466
     }
    }
   }
  }
 }
}
MOTION
Frames: 17
Frame Time: 0.008333
149.790839 89.051998 -183.851399 100.234195 -4.138244 0.355582 -4.106427 1.164832 2.773567 -2.454673 0.594615 1.380076 -3.066091 0.752450 1.721039 -2.454673 0.594615 1.380076 -31.375127 20.488575 -2.091859 -40.028497 0.561397 4.683234 2.005445 3.878957 -5.246988 -11.578902 1.895618 88.178027 4.656781 1.947562 0.649477 3.669217 -2.564589 0.189681 5.258073 2.865494 -1.055398 6.614204 2.969258 -88.473878 -7.587317 4.974763 -3.785360 -0.086804 3.855873 -1.356399 1.512445 3.130508 -0.995581 8.496952 2.321125 3.599197 11.252860 -1.527693 2.497251 0.013797 0.598841 0.005319 22.980066 3.436234 5.013697 6.289319 10.862098 6.055429 14.559794 -5.163053 -11.083214 -0.297399 -0.583008 -0.024829
149.764544 89.057040 -183.865829 100.209509 -4.186060 0.376968 -4.096907 1.189910 2.766086 -2.451597 0.603529 1.381239 -3.062211 0.763589 1.722440 -2.451597 0.603529 1.381239 -31.373684 20.473588 -2.085737 -40.029191 0.542185 4.692209 2.011478 3.885512 -5.242378 -11.579742 1.889694 88.166037 4.643544 1.934487 0.644703 3.669184 -2.567536 0.189396 5.265369 2.874817 -1.053396 6.606206 2.970986 -88.477247 -7.572657 4.951543 -3.769635 -0.099722 3.849162 -1.348403 1.533531 3.160205 -1.032478 8.503580 2.320670 3.616984 11.245670 -1.512687 2.496917 0.033562 0.591922 0.013022 22.918029 3.458584 5.006243 6.259114 10.934796 6.043071 14.617705 -5.157803 -11.134551 -0.309270 -0.588696 -0.007178
149.737959 89.063313 -183.882189 100.188851 -4.245310 0.399790 -4.087822 1.220375 2.756848 -2.449365 0.614265 1.382675 -3.059380 0.777009 1.724168 -2.449365 0.614265 1.382675 -31.373052 20.458196 -2.080738 -40.030866 0.522502 4.699955 2.018932 3.893046 -5.238834 -11.583773 1.884211 88.154243 4.632767 1.921853 0.638115 3.666724 -2.567987 0.193445 5.272412 2.884904 -1.056499 6.599434 2.971238 -88.476398 -7.563660 4.932706 -3.760220 -0.106996 3.843971 -1.340377 1.548859 3.202684 -1.069739 8.514941 2.319479 3.632964 11.224688 -1.496974 2.501150 0.052336 0.582783 0.017732 22.854835 3.490881 4.999754 6.256486 11.008295 6.052806 14.620145 -5.146929 -11.210116 -0.322382 -0.599462 0.015846
149.713298 89.071261 -183.901334 100.129146 -4.334853 0.426727 -4.039941 1.274017 2.746155 -2.447760 0.628566 1.384329 -3.057319 0.794888 1.726144 -2.447760 0.628566 1.384329 -31.371650 20.441843 -2.076685 -40.031067 0.501188 4.706447 2.027373 3.897556 -5.235099 -11.590149 1.877023 88.139649 4.621784 1.911776 0.632117 3.665208 -2.565389 0.197285 5.282219 2.891241 -1.066662 6.592657 2.970838 -88.471115 -7.559752 4.918707 -3.754151 -0.110602 3.839174 -1.336170 1.604281 3.275819 -1.106461 8.532305 2.318887 3.648239 11.180936 -1.490684 2.511743 0.067759 0.581405 0.018013 22.828212 3.549794 5.001684 6.273375 11.086662 6.082578 14.594043 -5.113798 -11.297429 -0.360008 -0.629570 0.029918
149.683653 89.080580 -183.923069 100.103983 -4.420269 0.455175 -4.032926 1.314780 2.733137 -2.445010 0.647602 1.385798 -3.053809 0.818681 1.727860 -2.445009 0.647602 1.385798 -31.368556 20.425656 -2.072743 -40.028497 0.479595 4.712456 2.037449 3.896744 -5.232118 -11.593438 1.866862 88.123804 4.607306 1.902723 0.628029 3.665168 -2.563719 0.196557 5.295760 2.891216 -1.079918 6.586843 2.969141 -88.464973 -7.558737 4.912037 -3.750035 -0.112247 3.833331 -1.336865 1.625413 3.340236 -1.148094 8.554607 2.324681 3.666020 11.122198 -1.473332 2.523919 0.083581 0.566836 0.017464 22.751996 3.603469 4.995408 6.294972 11.173280 6.125075 14.528696 -5.088850 -11.406041 -0.382162 -0.653903 0.050223
149.649718 89.091425 -183.947795 100.076733 -4.511513 0.486681 -4.032181 1.352458 2.717436 -2.439721 0.670751 1.386887 -3.047112 0.847603 1.729078 -2.439721 0.670751 1.386887 -31.365000 20.411789 -2.068759 -40.025030 0.460932 4.718200 2.046343 3.894984 -5.231863 -11.590025 1.853173 88.110402 4.589237 1.892389 0.625448 3.666821 -2.565273 0.192158 5.311105 2.888346 -1.091731 6.580539 2.963939 -88.461058 -7.559596 4.912648 -3.751705 -0.111669 3.826631 -1.338020 1.647075 3.401997 -1.195101 8.581926 2.341500 3.684668 11.064795 -1.456559 2.536701 0.105636 0.550129 0.020471 22.649540 3.659092 4.984709 6.306511 11.273630 6.175685 14.461185 -5.055447 -11.521630 -0.417334 -0.683928 0.062622
149.610627 89.103729 -183.976343 100.049680 -4.608610 0.524975 -4.035920 1.388332 2.696930 -2.432066 0.696121 1.387126 -3.037451 0.879286 1.729225 -2.432066 0.696121 1.387125 -31.362766 20.401464 -2.065612 -40.023176 0.447184 4.722786 2.048885 3.899525 -5.233950 -11.585410 1.834933 88.100895 4.570218 1.881133 0.622032 3.671264 -2.565765 0.187371 5.325286 2.886765 -1.101185 6.571616 2.955026 -88.458183 -7.561386 4.916669 -3.758303 -0.109643 3.822002 -1.343178 1.665922 3.460471 -1.252189 8.613953 2.370621 3.702570 11.015691 -1.443064 2.551125 0.132606 0.533209 0.027669 22.508428 3.715630 4.964053 6.291949 11.395654 6.228177 14.417908 -5.014758 -11.638463 -0.461852 -0.718118 0.064798
149.565757 89.117309 -184.008584 100.027783 -4.709684 0.569162 -4.041978 1.426317 2.672808 -2.423440 0.721936 1.386480 -3.026576 0.911516 1.728267 -2.423440 0.721936 1.386480 -31.362257 20.393934 -2.062438 -40.023913 0.437614 4.727462 2.043426 3.911306 -5.237189 -11.583514 1.813010 88.095584 4.555593 1.871269 0.616283 3.675088 -2.565397 0.184644 5.336874 2.886322 -1.107653 6.557906 2.943160 -88.454805 -7.567934 4.920835 -3.766994 -0.102869 3.821873 -1.358689 1.677552 3.515838 -1.318573 8.648043 2.409056 3.721113 10.971393 -1.431836 2.564100 0.162620 0.516547 0.039530 22.326178 3.768802 4.937520 6.239769 11.544438 6.270407 14.403328 -4.973481 -11.745428 -0.507779 -0.752673 0.054293
149.510897 89.131606 -184.043416 100.060773 -4.788402 0.614433 -4.094221 1.445596 2.646807 -2.415979 0.747002 1.385707 -3.017161 0.942813 1.727153 -2.415979 0.747002 1.385707 -31.361691 20.388110 -2.058080 -40.024814 0.430458 4.733462 2.036616 3.927537 -5.241706 -11.585581 1.788932 88.092814 4.548514 1.867161 0.611075 3.675002 -2.566982 0.180727 5.348191 2.887920 -1.110451 6.537939 2.927971 -88.453030 -7.583329 4.924588 -3.779735 -0.087196 3.828946 -1.383534 1.634696 3.544171 -1.393665 8.677537 2.452465 3.741345 10.932995 -1.411977 2.575025 0.191617 0.491026 0.053971 22.065237 3.793346 4.905966 6.145068 11.716813 6.291851 14.360974 -4.954991 -11.840852 -0.527783 -0.773381 0.040294
149.451452 89.146859 -184.080448 100.081490 -4.872146 0.661775 -4.122571 1.480415 2.622667 -2.411662 0.769933 1.384952 -3.011685 0.971453 1.726070 -2.411662 0.769933 1.384952 -31.359033 20.382750 -2.051437 -40.023039 0.423669 4.741915 2.034505 3.943108 -5.247378 -11.591400 1.765567 88.091461 4.547177 1.868838 0.608020 3.672571 -2.569547 0.174466 5.360298 2.893973 -1.110155 6.515741 2.908962 -88.456520 -7.608821 4.929535 -3.798009 -0.062299 3.844151 -1.412882 1.602900 3.574472 -1.472957 8.697595 2.500039 3.762653 10.904008 -1.402667 2.585629 0.222533 0.475175 0.070055 21.802463 3.813940 4.891077 6.005757 11.907621 6.288468 14.299814 -4.928352 -11.908425 -0.562634 -0.804791 0.008423
149.383961 89.162676 -184.119110 100.132795 -4.934703 0.712743 -4.166597 1.510452 2.600817 -2.411099 0.788358 1.383305 -3.010918 0.994470 1.723893 -2.411099 0.788358 1.383305 -31.354637 20.376942 -2.042443 -40.019245 0.416155 4.753061 2.035269 3.953977 -5.252614 -11.597751 1.747178 88.090747 4.549339 1.869347 0.604469 3.669722 -2.572751 0.170968 5.369236 2.904648 -1.109415 6.498759 2.888234 -88.463586 -7.646563 4.939851 -3.823690 -0.031842 3.864536 -1.441467 1.534743 3.581586 -1.562490 8.712138 2.549081 3.783457 10.886888 -1.395940 2.601616 0.252077 0.461456 0.083769 21.495817 3.806216 4.875414 5.829958 12.113963 6.265249 14.191058 -4.909265 -11.967042 -0.577897 -0.833273 -0.019780
149.307518 89.178972 -184.158526 100.233569 -4.962691 0.767201 -4.246340 1.521408 2.583674 -2.413550 0.802073 1.380121 -3.013939 1.011601 1.719819 -2.413550 0.802073 1.380121 -31.349387 20.369781 -2.032158 -40.014586 0.406817 4.765815 2.035801 3.960099 -5.258006 -11.600237 1.734866 88.088768 4.554286 1.861363 0.600202 3.668797 -2.574616 0.170161 5.374271 2.916890 -1.111281 6.488895 2.872198 -88.469289 -7.700614 4.957583 -3.859519 -0.001449 3.884822 -1.464738 1.412164 3.554392 -1.664044 8.727575 2.593840 3.805450 10.876318 -1.378469 2.625291 0.273223 0.439053 0.091855 21.123074 3.756132 4.844579 5.634516 12.335444 6.234477 14.016268 -4.913131 -12.042054 -0.533118 -0.844677 -0.021391
149.229023 89.196412 -184.198543 100.322314 -4.987095 0.828070 -4.309049 1.537446 2.568583 -2.416806 0.814438 1.375930 -3.017976 1.027041 1.714493 -2.416806 0.814438 1.375930 -31.342582 20.360262 -2.020309 -40.008093 0.394174 4.780486 2.036883 3.960966 -5.264742 -11.598954 1.728506 88.084148 4.565131 1.846222 0.598712 3.669290 -2.575113 0.169361 5.379612 2.926493 -1.115300 6.480108 2.863134 -88.473908 -7.770087 4.978122 -3.905537 0.021180 3.900285 -1.476773 1.299507 3.525294 -1.773591 8.746147 2.632112 3.828251 10.866863 -1.354436 2.657043 0.283694 0.413196 0.094341 20.742415 3.691967 4.807577 5.426282 12.576149 6.200009 13.799845 -4.930073 -12.124501 -0.457250 -0.847829 -0.007761
149.154957 89.215618 -184.238875 100.365129 -5.035295 0.894695 -4.330262 1.577474 2.551408 -2.417768 0.829002 1.371824 -3.019136 1.045221 1.709264 -2.417768 0.829002 1.371824 -31.334421 20.348486 -2.007461 -39.999898 0.378329 4.796387 2.038690 3.957650 -5.272849 -11.599014 1.725772 88.076597 4.581345 1.831312 0.602221 3.671740 -2.579289 0.167951 5.385430 2.931931 -1.120484 6.466778 2.856052 -88.477848 -7.847006 4.998932 -3.960716 0.025449 3.909102 -1.473106 1.228578 3.522281 -1.884624 8.766201 2.665407 3.849485 10.848182 -1.341020 2.692534 0.293024 0.400832 0.095734 20.383516 3.638408 4.776839 5.194461 12.844180 6.148504 13.589658 -4.956262 -12.182296 -0.402875 -0.848692 -0.004315
149.084915 89.236547 -184.279472 100.384927 -5.094628 0.968777 -4.338710 1.622412 2.525510 -2.414136 0.847496 1.368974 -3.014536 1.068304 1.705591 -2.414136 0.847496 1.368975 -31.325658 20.335620 -1.995070 -39.990669 0.360809 4.811695 2.038716 3.954526 -5.282576 -11.602598 1.719583 88.066801 4.597140 1.817918 0.609965 3.681571 -2.586121 0.165561 5.387542 2.933427 -1.129586 6.449666 2.848059 -88.478302 -7.929761 5.022104 -4.021500 0.009300 3.913126 -1.454619 1.173274 3.531836 -2.001492 8.782715 2.698124 3.870728 10.856512 -1.304823 2.734870 0.285779 0.365413 0.089846 20.015921 3.584002 4.742366 4.925582 13.148649 6.068593 13.357280 -5.043325 -12.218634 -0.316437 -0.818285 0.004697
149.024969 89.259475 -184.318010 100.363573 -5.188152 1.033434 -4.318077 1.698110 2.505568 -2.405899 0.869036 1.368007 -3.004167 1.095191 1.704262 -2.405900 0.869036 1.368007 -31.316009 20.323303 -1.984572 -39.979370 0.343469 4.824373 2.038202 3.955686 -5.293475 -11.608197 1.707546 88.056275 4.612973 1.806041 0.619302 3.696313 -2.593462 0.163595 5.386230 2.933824 -1.142559 6.428633 2.837914 -88.477599 -8.020091 5.045802 -4.083595 -0.020323 3.914797 -1.423730 1.150061 3.574726 -2.107027 8.792791 2.735210 3.893383 10.881700 -1.284834 2.771583 0.290274 0.344659 0.089578 19.648288 3.544339 4.728184 4.618143 13.492040 5.963674 13.136409 -5.174535 -12.193711 -0.260975 -0.775378 -0.021162
148.971111 89.283753 -184.354712 100.324552 -5.285187 1.091577 -4.288956 1.776230 2.488630 -2.394348 0.892001 1.368845 -2.989644 1.123858 1.705191 -2.394348 0.892001 1.368845 -31.305100 20.312291 -1.976828 -39.965063 0.327063 4.833176 2.039708 3.961368 -5.305249 -11.610587 1.693146 88.044488 4.631118 1.796539 0.630752 3.708914 -2.603113 0.163640 5.383838 2.938010 -1.155654 6.400983 2.821147 -88.480078 -8.112971 5.066173 -4.144833 -0.054170 3.914792 -1.383343 1.134066 3.620624 -2.206897 8.803192 2.774489 3.917677 10.930466 -1.260196 2.809975 0.288756 0.318095 0.087181 19.245058 3.494178 4.716959 4.278116 13.863254 5.844365 12.860990 -5.365820 -12.107129 -0.210586 -0.714978 -0.075718
